# xmcd
#
# Track frame offsets: 
#        150
#        13505
#        27955
#        40077
#        51687
#        65605
#        78697
#        92230
#        104992
#        117992
#        132420
#        146805
#        159557
#        172062
#        185227
#        197057
#        210027
#        222875
#        235415
#        248952
#        261922
#        274742
#        284765
#        298020
#        314407
#        326062
#        337285
#
# Disc length: 4657 seconds
#
# Revision: 1
# Processed by: cddbd v1.5.2PL0 Copyright (c) Steve Scherf et al.
# Submitted via: ExactAudioCopy v1.1
#
DISCID=c5122f1b
DTITLE=The Carter Family - In The Shadow Of Clinch Mountain  -  CD8
DYEAR=2000
DGENRE=Country
TTITLE0=There's No One Like Mother To Me  (1936)
TTITLE1=In A Little Village Churchyard  (1936)
TTITLE2=Jealous Hearted Me  (1936)
TTITLE3=My Native Home  (1936)
TTITLE4=Sweet Heaven In My View  (1936)
TTITLE5=No Depression (In Heaven)  (1936)
TTITLE6=Bonnie Blue Eyes  (1936)
TTITLE7=My Honey Lou  (1936)
TTITLE8=In The Shadow Of The Pines  (1936)
TTITLE9=Answer To Weeping Willow  (1936)
TTITLE10=You've Been A Friend To Me  (1936)
TTITLE11=Where The Silvery Colorado Wends Its Way  (1936)
TTITLE12=Lay My Head Beneath The Rose  (1936)
TTITLE13=No Depression In Heaven  (1936)
TTITLE14=My Native Home  (1936)
TTITLE15=Jealous Hearted Me  (1936)
TTITLE16=A Distant Land To Roam  (1936)
TTITLE17=I'm Working On A Building  (1936)
TTITLE18=East Virginia Blues, No. 2  (1936)
TTITLE19=My Dixie Darling  (1936)
TTITLE20=Keep On The Sunny Side  (1936)
TTITLE21=Kissing Is A Crime  (1936)
TTITLE22=Single Girl, Married Girl  (1936)
TTITLE23=Little Darling Pal Of Mine  (1936)
TTITLE24=Lonesome Valley  (1936)
TTITLE25=Cannon Ball Blues  (1936)
TTITLE26=Happy Or Lonesome  (1936)
EXTD=Bear Family CD 15865 LK
EXTT0=08-JUN-1936, New York City
EXTT1=08-JUN-1936, New York City
EXTT2=08-JUN-1936, New York City
EXTT3=08-JUN-1936, New York City
EXTT4=08-JUN-1936, New York City
EXTT5=09-JUN-1936, New York City
EXTT6=09-JUN-1936, New York City
EXTT7=09-JUN-1936, New York City
EXTT8=09-JUN-1936, New York City
EXTT9=09-JUN-1936, New York City
EXTT10=09-JUN-1936, New York City
EXTT11=09-JUN-1936, New York City
EXTT12=09-JUN-1936, New York City
EXTT13=09-JUN-1936, New York City
EXTT14=09-JUN-1936, New York City
EXTT15=09-JUN-1936, New York City
EXTT16=09-JUN-1936, New York City
EXTT17=09-JUN-1936, New York City
EXTT18=10-JUN-1936, New York City
EXTT19=10-JUN-1936, New York City
EXTT20=10-JUN-1936, New York City
EXTT21=10-JUN-1936, New York City
EXTT22=10-JUN-1936, New York City
EXTT23=10-JUN-1936, New York City
EXTT24=10-JUN-1936, New York City
EXTT25=10-JUN-1936, New York City
EXTT26=10-JUN-1936, New York City
PLAYORDER=
